<svg width="801" height="160" viewBox="0 0 801 160" fill="none" xmlns="http://www.w3.org/2000/svg">
<path d="M78.6098 34.5004C86.0967 34.5004 92.2223 35.5219 98.2346 37.4509C104.247 39.3799 109.579 42.5567 114.003 46.528C118.427 50.613 121.831 55.7196 124.213 61.6201C126.595 67.5207 127.843 74.6695 127.843 82.6125V160H97.7811V64.2302H30.062V159.987H0V64.2175H30.062V64.2199C30.1737 63.9962 30.2857 63.7708 30.3975 63.4354C33.2334 57.989 36.9771 52.9966 41.5145 48.5713C46.1656 44.2594 51.6109 40.7413 57.8502 38.2449C64.0894 35.7486 71.1228 34.5004 78.6098 34.5004Z" fill="#ffffff"/>
<path d="M386.946 121.303L415.874 37.2205H449.452L477.245 121.19L506.626 37.2205H539.637L491.765 159.997H464.312L432.436 74.7798L399.765 159.997H372.313L325.461 37.2205H358.359L386.946 121.303Z" fill="#ffffff"/>
<path d="M618.703 66.6051H575.706V159.997H545.644V37.2205H575.706V66.374C575.782 66.2141 575.86 66.0384 575.935 65.8111C578.771 60.3645 582.515 55.3716 587.052 50.9462C591.703 46.6343 597.149 43.1162 603.388 40.6198C608.039 38.8043 613.258 37.5564 618.703 37.1025V66.6051Z" fill="#ffffff"/>
<path d="M656.816 159.997H626.527V37.2205H656.816V159.997Z" fill="#ffffff"/>
<path d="M732.935 76.8223L765.266 37.2205H801L750.746 98.6087L801 159.997H765.266L732.935 120.395L700.492 159.997H664.758L715.012 98.6087L664.758 37.2205H700.492L732.935 76.8223Z" fill="#ffffff"/>
<path d="M289.048 37.2189H319.79V62.4094H289.048V129.925H319.79V159.995H297.329C276.116 159.995 258.986 142.861 258.986 121.642V0H289.048V37.2189Z" fill="#ffffff"/>
<path fill-rule="evenodd" clip-rule="evenodd" d="M210.541 37.1025C231.754 37.1025 248.884 54.2367 248.884 75.4559V108.703H168.114V129.923H233.796V159.992H182.294C157.904 159.992 138.052 140.248 138.052 115.738V75.4559C138.052 54.2368 155.182 37.1027 176.395 37.1025H210.541ZM168 62.407V83.6257H218.709V62.407H168Z" fill="#ffffff"/>
<path d="M656.823 30.2967H626.535V0H656.823V30.2967Z" fill="#ffffff"/>
</svg>